<svg width="47" height="30" viewBox="0 0 47 30" fill="none" xmlns="http://www.w3.org/2000/svg">
<rect width="47" height="30" rx="8" fill="#18ABC6"/>
<path d="M19.746 18.156C20.898 17.196 21.816 16.398 22.5 15.762C23.184 15.114 23.754 14.442 24.21 13.746C24.666 13.05 24.894 12.366 24.894 11.694C24.894 11.082 24.75 10.602 24.462 10.254C24.174 9.906 23.73 9.732 23.13 9.732C22.53 9.732 22.068 9.936 21.744 10.344C21.42 10.74 21.252 11.286 21.24 11.982H18.792C18.84 10.542 19.266 9.45 20.07 8.706C20.886 7.962 21.918 7.59 23.166 7.59C24.534 7.59 25.584 7.956 26.316 8.688C27.048 9.408 27.414 10.362 27.414 11.55C27.414 12.486 27.162 13.38 26.658 14.232C26.154 15.084 25.578 15.828 24.93 16.464C24.282 17.088 23.436 17.844 22.392 18.732H27.702V20.82H18.81V18.948L19.746 18.156Z" fill="white"/>
</svg>
