<svg width="47" height="30" viewBox="0 0 47 30" fill="none" xmlns="http://www.w3.org/2000/svg">
<rect width="47" height="30" rx="8" fill="#18ABC6"/>
<path d="M18.99 11.334C19.05 10.134 19.47 9.21 20.25 8.562C21.042 7.902 22.08 7.572 23.364 7.572C24.24 7.572 24.99 7.728 25.614 8.04C26.238 8.34 26.706 8.754 27.018 9.282C27.342 9.798 27.504 10.386 27.504 11.046C27.504 11.802 27.306 12.444 26.91 12.972C26.526 13.488 26.064 13.836 25.524 14.016V14.088C26.22 14.304 26.76 14.688 27.144 15.24C27.54 15.792 27.738 16.5 27.738 17.364C27.738 18.084 27.57 18.726 27.234 19.29C26.91 19.854 26.424 20.298 25.776 20.622C25.14 20.934 24.372 21.09 23.472 21.09C22.116 21.09 21.012 20.748 20.16 20.064C19.308 19.38 18.858 18.372 18.81 17.04H21.258C21.282 17.628 21.48 18.102 21.852 18.462C22.236 18.81 22.758 18.984 23.418 18.984C24.03 18.984 24.498 18.816 24.822 18.48C25.158 18.132 25.326 17.688 25.326 17.148C25.326 16.428 25.098 15.912 24.642 15.6C24.186 15.288 23.478 15.132 22.518 15.132H21.996V13.062H22.518C24.222 13.062 25.074 12.492 25.074 11.352C25.074 10.836 24.918 10.434 24.606 10.146C24.306 9.858 23.868 9.714 23.292 9.714C22.728 9.714 22.29 9.87 21.978 10.182C21.678 10.482 21.504 10.866 21.456 11.334H18.99Z" fill="white"/>
</svg>
